<svg xmlns="http://www.w3.org/2000/svg" width="75" height="75" fill="none" viewBox="0 0 75 75">
  <path fill="#fff" d="M.75 18.07l16.19 17.55a12.91 12.91 0 0014.59 2.24L4.87 61.94C2.31 64.5 2 68.37 4.18 70.56c2.19 2.18 6.06 1.87 8.65-.73L37.7 42.31l27 29.86c2.51 2.5 6.29 2.8 8.43.66a5.08 5.08 0 001.43-3.61 6.91 6.91 0 00-2.14-4.84L42.3 37.21l2.32-2.57c5 2.64 12.79 2.54 19.16-3.82a31.21 31.21 0 007.75-14.31c1.33-5.47.88-10-1.21-12.07-1.31-1.3-3.55-2-6.37-2-1.927.02-3.844.272-5.71.75a31.14 31.14 0 00-14.32 7.74 18 18 0 00-5.21 9.67 12.25 12.25 0 00-2.91-4.4L17.9.49a1 1 0 00-1.05-.173 1 1 0 00-.33.223l-2.84 2.92a1 1 0 000 1.41l15.87 15.48a1.19 1.19 0 010 1.64 1.16 1.16 0 01-1.63.08L12 6.59a1 1 0 00-1.41 0l-3.93 4a1.001 1.001 0 00-.29.71 1 1 0 00.3.7l15.89 15.52a1.2 1.2 0 01-1.67 1.72L5 13.75a1.16 1.16 0 00-.71-.28 1.001 1.001 0 00-.71.3L.75 16.69a1 1 0 000 1.38zm10.64 50.39c-1.78 1.79-4.39 2.09-5.79.69-1.4-1.4-1.1-4 .65-5.76l27.81-25.12 2.29 2.55-24.96 27.64zm34-56.08a29.35 29.35 0 0113.37-7.22c4.64-1.13 8.64-.86 10.19.7 1.55 1.56 1.82 5.54.68 10.17a29.36 29.36 0 01-7.22 13.37 15.49 15.49 0 01-11 4.87 12.17 12.17 0 01-6.44-1.75 1 1 0 00-1.29.23l-2.86 3.17-2.05-1.86 3.27-3a1 1 0 00.18-1.31c-2.65-4.2-2.8-11.46 3.12-17.37h.05zm-6.06 15.83c.218.66.492 1.298.82 1.91l-2.48 2.24a13.332 13.332 0 001.61-4.15h.05zM4.34 15.89l15.15 14.78A3.213 3.213 0 1024 26.09L8.82 11.3l2.53-2.55L26.48 23.5a3.15 3.15 0 004.46-.12 3.18 3.18 0 000-4.46L15.81 4.14l1.48-1.52 17.15 15.07a11.15 11.15 0 01.82 14.62 1 1 0 00.13 1.34l1.22 1.1 3.61 3.27L71 65.83a4.87 4.87 0 011.51 3.39 2.93 2.93 0 01-3.05 3 4.87 4.87 0 01-3.36-1.47l-27.66-30.6-3.57-4-1-1.06a1 1 0 00-1.32-.14 11.08 11.08 0 01-14.18-.73L2.87 17.41l1.47-1.52z"/>
</svg>
